# xmcd
#
# Track frame offsets: 
#        182
#        12632
#        27882
#        41520
#        57082
#        75395
#        92957
#        108782
#        121620
#        132157
#        148657
#        167782
#        177920
#        190095
#
# Disc length: 2675 seconds
#
# Revision: 1
# Processed by: cddbd v1.5.2PL0 Copyright (c) Steve Scherf et al.
# Submitted via: ExactAudioCopy v0.99pb4
#
DISCID=ae0a710e
DTITLE=Various Artist - Country No1's Volume 2 [CD 1)
DYEAR=1989
DGENRE=Country
TTITLE0=Dolly Parton - 9 To 5
TTITLE1=Eddie Rabbitt - The Wanderer
TTITLE2=Alabama - Face To Face
TTITLE3=Restless Heart - That Rock Won't Roll
TTITLE4=Earl Thomas Conley - What She Is
TTITLE5=Michael Johnson - The Moon Is Still Over Her Shoulder
TTITLE6=The Judds - Why Not Me
TTITLE7=Elvis Presley - Guitar Man
TTITLE8=Jerry Reed - When You're Hot You're Hot
TTITLE9=Dickey Lee - Rocky
TTITLE10=Waylon Jennings - I've Always Been Crazy
TTITLE11=Charley Pride - Kiss An Angel Good Morning
TTITLE12=Ronnie Milsap - My Heart
TTITLE13=Dolly Parton - Love Is Like A Butterfly
EXTD=COUNTRY No1's Volume 2 (3 Disc-Set]\nBMG Records (UK) Ltd.\nCD 74
EXTD=335\nEAN: 0035627433528
EXTT0=
EXTT1=
EXTT2=
EXTT3=
EXTT4=
EXTT5=
EXTT6=
EXTT7=
EXTT8=
EXTT9=
EXTT10=
EXTT11=
EXTT12=
EXTT13=
PLAYORDER=
